<?xml version="1.0" encoding="UTF-8" standalone="no"?>
<svg width="20px" height="20px" viewBox="0 0 20 20" version="1.1" xmlns="http://www.w3.org/2000/svg" xmlns:xlink="http://www.w3.org/1999/xlink">
    <!-- Generator: Sketch 40.1 (33804) - http://www.bohemiancoding.com/sketch -->
    <title>add_circle</title>
    <desc>Created with Sketch.</desc>
    <defs></defs>
    <g id="Page-1" stroke="none" stroke-width="1" fill="none" fill-rule="evenodd">
        <g id="5.1" transform="translate(-58.000000, -34.000000)" fill="#FFFFFF">
            <path d="M73.015625,44.984375 L73.015625,43.015625 L68.984375,43.015625 L68.984375,38.984375 L67.015625,38.984375 L67.015625,43.015625 L62.984375,43.015625 L62.984375,44.984375 L67.015625,44.984375 L67.015625,49.015625 L68.984375,49.015625 L68.984375,44.984375 L73.015625,44.984375 Z M75.0546875,36.9453125 C77.0078223,38.8984473 77.984375,41.2499862 77.984375,44 C77.984375,46.7500138 77.0078223,49.1015527 75.0546875,51.0546875 C73.1015527,53.0078223 70.7500137,53.984375 68,53.984375 C65.2499863,53.984375 62.8984473,53.0078223 60.9453125,51.0546875 C58.9921777,49.1015527 58.015625,46.7500138 58.015625,44 C58.015625,41.2499862 58.9921777,38.8984473 60.9453125,36.9453125 C62.8984473,34.9921777 65.2499863,34.015625 68,34.015625 C70.7500137,34.015625 73.1015527,34.9921777 75.0546875,36.9453125 Z" id="add_circle"></path>
        </g>
    </g>
</svg>